<mxfile host="65bd71144e">
    <diagram name="arch" id="Lywj0zy4_ZnA3Ya72WYE">
        <mxGraphModel dx="906" dy="647" grid="1" gridSize="10" guides="1" tooltips="1" connect="1" arrows="1" fold="1" page="1" pageScale="1" pageWidth="827" pageHeight="1169" math="0" shadow="0">
            <root>
                <mxCell id="0"/>
                <mxCell id="1" parent="0"/>
                <mxCell id="rTcP7m26tGcJ0GSYRuCK-4" value="" style="shape=flexArrow;endArrow=classic;html=1;rounded=0;" parent="1" edge="1">
                    <mxGeometry width="50" height="50" relative="1" as="geometry">
                        <mxPoint x="175" y="330" as="sourcePoint"/>
                        <mxPoint x="225" y="330" as="targetPoint"/>
                        <Array as="points">
                            <mxPoint x="205" y="330"/>
                        </Array>
                    </mxGeometry>
                </mxCell>
                <mxCell id="rTcP7m26tGcJ0GSYRuCK-9" value="" style="shape=flexArrow;endArrow=classic;html=1;rounded=0;" parent="1" edge="1">
                    <mxGeometry width="50" height="50" relative="1" as="geometry">
                        <mxPoint x="340" y="330" as="sourcePoint"/>
                        <mxPoint x="390" y="330" as="targetPoint"/>
                        <Array as="points">
                            <mxPoint x="370" y="330"/>
                        </Array>
                    </mxGeometry>
                </mxCell>
                <mxCell id="rTcP7m26tGcJ0GSYRuCK-14" value="" style="shape=flexArrow;endArrow=classic;html=1;rounded=0;" parent="1" edge="1">
                    <mxGeometry width="50" height="50" relative="1" as="geometry">
                        <mxPoint x="500" y="330" as="sourcePoint"/>
                        <mxPoint x="550" y="330" as="targetPoint"/>
                        <Array as="points">
                            <mxPoint x="530" y="330"/>
                        </Array>
                    </mxGeometry>
                </mxCell>
                <mxCell id="rTcP7m26tGcJ0GSYRuCK-23" value="" style="group" parent="1" vertex="1" connectable="0">
                    <mxGeometry x="80" y="290" width="80" height="120" as="geometry"/>
                </mxCell>
                <mxCell id="rTcP7m26tGcJ0GSYRuCK-1" value="" style="whiteSpace=wrap;html=1;aspect=fixed;fillColor=#dae8fc;strokeColor=#6c8ebf;" parent="rTcP7m26tGcJ0GSYRuCK-23" vertex="1">
                    <mxGeometry width="80" height="80" as="geometry"/>
                </mxCell>
                <mxCell id="rTcP7m26tGcJ0GSYRuCK-22" value="" style="group" parent="rTcP7m26tGcJ0GSYRuCK-23" vertex="1" connectable="0">
                    <mxGeometry x="10" y="25" width="60" height="95" as="geometry"/>
                </mxCell>
                <mxCell id="rTcP7m26tGcJ0GSYRuCK-2" value="&lt;font color=&quot;#000000&quot;&gt;UI&lt;/font&gt;" style="text;html=1;align=center;verticalAlign=middle;resizable=0;points=[];autosize=1;strokeColor=none;fillColor=none;" parent="rTcP7m26tGcJ0GSYRuCK-22" vertex="1">
                    <mxGeometry x="10" width="40" height="30" as="geometry"/>
                </mxCell>
                <mxCell id="rTcP7m26tGcJ0GSYRuCK-15" value="Components&lt;br&gt;Telas" style="text;html=1;strokeColor=none;fillColor=none;align=center;verticalAlign=middle;whiteSpace=wrap;rounded=0;" parent="rTcP7m26tGcJ0GSYRuCK-22" vertex="1">
                    <mxGeometry y="65" width="60" height="30" as="geometry"/>
                </mxCell>
                <mxCell id="rTcP7m26tGcJ0GSYRuCK-24" value="" style="group" parent="1" vertex="1" connectable="0">
                    <mxGeometry x="240" y="290" width="100" height="230" as="geometry"/>
                </mxCell>
                <mxCell id="rTcP7m26tGcJ0GSYRuCK-6" value="" style="whiteSpace=wrap;html=1;aspect=fixed;fillColor=#d5e8d4;strokeColor=#82b366;" parent="rTcP7m26tGcJ0GSYRuCK-24" vertex="1">
                    <mxGeometry x="10" width="80" height="80" as="geometry"/>
                </mxCell>
                <mxCell id="rTcP7m26tGcJ0GSYRuCK-5" value="&lt;font color=&quot;#000000&quot;&gt;viewController&lt;/font&gt;" style="text;html=1;align=center;verticalAlign=middle;resizable=0;points=[];autosize=1;strokeColor=none;fillColor=none;" parent="rTcP7m26tGcJ0GSYRuCK-24" vertex="1">
                    <mxGeometry y="25" width="100" height="30" as="geometry"/>
                </mxCell>
                <mxCell id="rTcP7m26tGcJ0GSYRuCK-16" value="Lógica da tela" style="text;html=1;strokeColor=none;fillColor=none;align=center;verticalAlign=middle;whiteSpace=wrap;rounded=0;" parent="rTcP7m26tGcJ0GSYRuCK-24" vertex="1">
                    <mxGeometry x="10" y="90" width="80" height="30" as="geometry"/>
                </mxCell>
                <mxCell id="rTcP7m26tGcJ0GSYRuCK-17" value="- Lidar como exibir os erros&lt;br&gt;&lt;br&gt;- Funções de botão, inputs" style="text;strokeColor=none;fillColor=none;align=left;verticalAlign=middle;spacingLeft=4;spacingRight=4;overflow=hidden;points=[[0,0.5],[1,0.5]];portConstraint=eastwest;rotatable=0;whiteSpace=wrap;html=1;" parent="rTcP7m26tGcJ0GSYRuCK-24" vertex="1">
                    <mxGeometry x="10" y="130" width="80" height="100" as="geometry"/>
                </mxCell>
                <mxCell id="rTcP7m26tGcJ0GSYRuCK-25" value="" style="group" parent="1" vertex="1" connectable="0">
                    <mxGeometry x="400" y="290" width="100" height="310" as="geometry"/>
                </mxCell>
                <mxCell id="rTcP7m26tGcJ0GSYRuCK-10" value="" style="group;fillColor=#f8cecc;strokeColor=#b85450;" parent="rTcP7m26tGcJ0GSYRuCK-25" vertex="1" connectable="0">
                    <mxGeometry width="80" height="80" as="geometry"/>
                </mxCell>
                <mxCell id="rTcP7m26tGcJ0GSYRuCK-7" value="" style="whiteSpace=wrap;html=1;aspect=fixed;fillColor=#ffe6cc;strokeColor=#d79b00;" parent="rTcP7m26tGcJ0GSYRuCK-10" vertex="1">
                    <mxGeometry width="64" height="64" as="geometry"/>
                </mxCell>
                <mxCell id="rTcP7m26tGcJ0GSYRuCK-8" value="&lt;font color=&quot;#000000&quot;&gt;modelView&lt;/font&gt;" style="text;html=1;align=center;verticalAlign=middle;resizable=0;points=[];autosize=1;strokeColor=none;fillColor=none;" parent="rTcP7m26tGcJ0GSYRuCK-10" vertex="1">
                    <mxGeometry y="25" width="80" height="30" as="geometry"/>
                </mxCell>
                <mxCell id="rTcP7m26tGcJ0GSYRuCK-18" value="Lógica da negócio" style="text;html=1;strokeColor=none;fillColor=none;align=center;verticalAlign=middle;whiteSpace=wrap;rounded=0;" parent="rTcP7m26tGcJ0GSYRuCK-25" vertex="1">
                    <mxGeometry y="90" width="90" height="30" as="geometry"/>
                </mxCell>
                <mxCell id="rTcP7m26tGcJ0GSYRuCK-19" value="- Lidar com estados globais e storage&lt;br&gt;&lt;br&gt;&amp;nbsp;- Lidar com regras de negócio e enviar erro ao vC&lt;br&gt;&lt;br&gt;ex:&amp;nbsp;&lt;br&gt;&amp;nbsp;- pode ou não remover participante" style="text;strokeColor=none;fillColor=none;align=left;verticalAlign=middle;spacingLeft=4;spacingRight=4;overflow=hidden;points=[[0,0.5],[1,0.5]];portConstraint=eastwest;rotatable=0;whiteSpace=wrap;html=1;" parent="rTcP7m26tGcJ0GSYRuCK-25" vertex="1">
                    <mxGeometry y="130" width="100" height="180" as="geometry"/>
                </mxCell>
                <mxCell id="rTcP7m26tGcJ0GSYRuCK-26" value="" style="group" parent="1" vertex="1" connectable="0">
                    <mxGeometry x="560" y="290" width="100" height="230" as="geometry"/>
                </mxCell>
                <mxCell id="rTcP7m26tGcJ0GSYRuCK-11" value="" style="group" parent="rTcP7m26tGcJ0GSYRuCK-26" vertex="1" connectable="0">
                    <mxGeometry x="10" width="80" height="80" as="geometry"/>
                </mxCell>
                <mxCell id="rTcP7m26tGcJ0GSYRuCK-12" value="" style="whiteSpace=wrap;html=1;aspect=fixed;fillColor=#fff2cc;strokeColor=#d6b656;" parent="rTcP7m26tGcJ0GSYRuCK-11" vertex="1">
                    <mxGeometry width="80" height="80" as="geometry"/>
                </mxCell>
                <mxCell id="rTcP7m26tGcJ0GSYRuCK-13" value="&lt;font color=&quot;#000000&quot;&gt;model&lt;/font&gt;" style="text;html=1;align=center;verticalAlign=middle;resizable=0;points=[];autosize=1;strokeColor=none;fillColor=none;" parent="rTcP7m26tGcJ0GSYRuCK-11" vertex="1">
                    <mxGeometry x="10" y="25" width="60" height="30" as="geometry"/>
                </mxCell>
                <mxCell id="rTcP7m26tGcJ0GSYRuCK-20" value="Conexão dos dados" style="text;html=1;strokeColor=none;fillColor=none;align=center;verticalAlign=middle;whiteSpace=wrap;rounded=0;" parent="rTcP7m26tGcJ0GSYRuCK-26" vertex="1">
                    <mxGeometry y="90" width="100" height="30" as="geometry"/>
                </mxCell>
                <mxCell id="rTcP7m26tGcJ0GSYRuCK-21" value="&amp;nbsp;- Bater na api&lt;br&gt;&lt;br&gt;- Lidar com dados no cache" style="text;strokeColor=none;fillColor=none;align=left;verticalAlign=middle;spacingLeft=4;spacingRight=4;overflow=hidden;points=[[0,0.5],[1,0.5]];portConstraint=eastwest;rotatable=0;whiteSpace=wrap;html=1;" parent="rTcP7m26tGcJ0GSYRuCK-26" vertex="1">
                    <mxGeometry x="10" y="130" width="80" height="100" as="geometry"/>
                </mxCell>
                <mxCell id="rTcP7m26tGcJ0GSYRuCK-31" value="" style="edgeStyle=orthogonalEdgeStyle;rounded=0;orthogonalLoop=1;jettySize=auto;html=1;" parent="1" source="rTcP7m26tGcJ0GSYRuCK-27" target="rTcP7m26tGcJ0GSYRuCK-28" edge="1">
                    <mxGeometry relative="1" as="geometry"/>
                </mxCell>
                <mxCell id="rTcP7m26tGcJ0GSYRuCK-27" value="Tela de Login" style="text;html=1;strokeColor=none;fillColor=none;align=center;verticalAlign=middle;whiteSpace=wrap;rounded=0;" parent="1" vertex="1">
                    <mxGeometry x="90" y="210" width="60" height="30" as="geometry"/>
                </mxCell>
                <mxCell id="rTcP7m26tGcJ0GSYRuCK-32" value="" style="edgeStyle=orthogonalEdgeStyle;rounded=0;orthogonalLoop=1;jettySize=auto;html=1;" parent="1" source="rTcP7m26tGcJ0GSYRuCK-28" target="rTcP7m26tGcJ0GSYRuCK-29" edge="1">
                    <mxGeometry relative="1" as="geometry"/>
                </mxCell>
                <mxCell id="rTcP7m26tGcJ0GSYRuCK-28" value="Função de submit do form e changeText do input" style="text;html=1;strokeColor=none;fillColor=none;align=center;verticalAlign=middle;whiteSpace=wrap;rounded=0;" parent="1" vertex="1">
                    <mxGeometry x="260" y="210" width="60" height="30" as="geometry"/>
                </mxCell>
                <mxCell id="rTcP7m26tGcJ0GSYRuCK-33" value="" style="edgeStyle=orthogonalEdgeStyle;rounded=0;orthogonalLoop=1;jettySize=auto;html=1;" parent="1" source="rTcP7m26tGcJ0GSYRuCK-29" target="rTcP7m26tGcJ0GSYRuCK-30" edge="1">
                    <mxGeometry relative="1" as="geometry"/>
                </mxCell>
                <mxCell id="rTcP7m26tGcJ0GSYRuCK-29" value="Chama a função de logar e" style="text;html=1;strokeColor=none;fillColor=none;align=center;verticalAlign=middle;whiteSpace=wrap;rounded=0;" parent="1" vertex="1">
                    <mxGeometry x="410" y="210" width="60" height="30" as="geometry"/>
                </mxCell>
                <mxCell id="rTcP7m26tGcJ0GSYRuCK-35" value="" style="edgeStyle=orthogonalEdgeStyle;rounded=0;orthogonalLoop=1;jettySize=auto;html=1;" parent="1" target="rTcP7m26tGcJ0GSYRuCK-34" edge="1">
                    <mxGeometry relative="1" as="geometry">
                        <mxPoint x="610" y="200" as="sourcePoint"/>
                    </mxGeometry>
                </mxCell>
                <mxCell id="rTcP7m26tGcJ0GSYRuCK-46" value="" style="edgeStyle=orthogonalEdgeStyle;rounded=0;orthogonalLoop=1;jettySize=auto;html=1;" parent="1" target="rTcP7m26tGcJ0GSYRuCK-34" edge="1">
                    <mxGeometry relative="1" as="geometry">
                        <mxPoint x="610" y="200" as="sourcePoint"/>
                    </mxGeometry>
                </mxCell>
                <mxCell id="rTcP7m26tGcJ0GSYRuCK-30" value="Faz o login usando a api" style="text;html=1;strokeColor=none;fillColor=none;align=center;verticalAlign=middle;whiteSpace=wrap;rounded=0;" parent="1" vertex="1">
                    <mxGeometry x="580" y="210" width="60" height="30" as="geometry"/>
                </mxCell>
                <mxCell id="rTcP7m26tGcJ0GSYRuCK-37" value="" style="edgeStyle=orthogonalEdgeStyle;rounded=0;orthogonalLoop=1;jettySize=auto;html=1;" parent="1" source="rTcP7m26tGcJ0GSYRuCK-34" target="rTcP7m26tGcJ0GSYRuCK-36" edge="1">
                    <mxGeometry relative="1" as="geometry"/>
                </mxCell>
                <mxCell id="rTcP7m26tGcJ0GSYRuCK-34" value="Erro da api" style="text;strokeColor=none;fillColor=none;align=left;verticalAlign=middle;spacingLeft=4;spacingRight=4;overflow=hidden;points=[[0,0.5],[1,0.5]];portConstraint=eastwest;rotatable=0;whiteSpace=wrap;html=1;fontColor=#FF9999;" parent="1" vertex="1">
                    <mxGeometry x="570" y="130" width="80" height="30" as="geometry"/>
                </mxCell>
                <mxCell id="rTcP7m26tGcJ0GSYRuCK-39" value="" style="edgeStyle=orthogonalEdgeStyle;rounded=0;orthogonalLoop=1;jettySize=auto;html=1;" parent="1" source="rTcP7m26tGcJ0GSYRuCK-36" target="rTcP7m26tGcJ0GSYRuCK-38" edge="1">
                    <mxGeometry relative="1" as="geometry"/>
                </mxCell>
                <mxCell id="rTcP7m26tGcJ0GSYRuCK-36" value="Trata o erro" style="text;html=1;strokeColor=none;fillColor=none;align=center;verticalAlign=middle;whiteSpace=wrap;rounded=0;fontColor=#FF9999;" parent="1" vertex="1">
                    <mxGeometry x="414" y="130" width="60" height="30" as="geometry"/>
                </mxCell>
                <mxCell id="rTcP7m26tGcJ0GSYRuCK-41" value="" style="edgeStyle=orthogonalEdgeStyle;rounded=0;orthogonalLoop=1;jettySize=auto;html=1;" parent="1" source="rTcP7m26tGcJ0GSYRuCK-38" target="rTcP7m26tGcJ0GSYRuCK-40" edge="1">
                    <mxGeometry relative="1" as="geometry"/>
                </mxCell>
                <mxCell id="rTcP7m26tGcJ0GSYRuCK-38" value="chama um toast ou repassa o erro para a UI" style="text;html=1;strokeColor=none;fillColor=none;align=center;verticalAlign=middle;whiteSpace=wrap;rounded=0;fontColor=#FF9999;" parent="1" vertex="1">
                    <mxGeometry x="260" y="130" width="60" height="30" as="geometry"/>
                </mxCell>
                <mxCell id="rTcP7m26tGcJ0GSYRuCK-40" value="Feedback de erro" style="text;html=1;strokeColor=none;fillColor=none;align=center;verticalAlign=middle;whiteSpace=wrap;rounded=0;fontColor=#FF9999;" parent="1" vertex="1">
                    <mxGeometry x="90" y="130" width="60" height="30" as="geometry"/>
                </mxCell>
                <mxCell id="rTcP7m26tGcJ0GSYRuCK-47" value="" style="edgeStyle=orthogonalEdgeStyle;rounded=0;orthogonalLoop=1;jettySize=auto;html=1;" parent="1" target="rTcP7m26tGcJ0GSYRuCK-34" edge="1">
                    <mxGeometry relative="1" as="geometry">
                        <mxPoint x="610" y="100" as="sourcePoint"/>
                    </mxGeometry>
                </mxCell>
                <mxCell id="rTcP7m26tGcJ0GSYRuCK-48" value="" style="edgeStyle=orthogonalEdgeStyle;rounded=0;orthogonalLoop=1;jettySize=auto;html=1;" parent="1" source="rTcP7m26tGcJ0GSYRuCK-42" target="rTcP7m26tGcJ0GSYRuCK-43" edge="1">
                    <mxGeometry relative="1" as="geometry"/>
                </mxCell>
                <mxCell id="rTcP7m26tGcJ0GSYRuCK-42" value="retorna os dados de login" style="text;html=1;strokeColor=none;fillColor=none;align=center;verticalAlign=middle;whiteSpace=wrap;rounded=0;fontColor=#009900;" parent="1" vertex="1">
                    <mxGeometry x="580" y="60" width="60" height="30" as="geometry"/>
                </mxCell>
                <mxCell id="rTcP7m26tGcJ0GSYRuCK-49" value="" style="edgeStyle=orthogonalEdgeStyle;rounded=0;orthogonalLoop=1;jettySize=auto;html=1;" parent="1" source="rTcP7m26tGcJ0GSYRuCK-43" target="rTcP7m26tGcJ0GSYRuCK-44" edge="1">
                    <mxGeometry relative="1" as="geometry"/>
                </mxCell>
                <mxCell id="rTcP7m26tGcJ0GSYRuCK-43" value="Salva o token no storage a atualiza o estado" style="text;html=1;strokeColor=none;fillColor=none;align=center;verticalAlign=middle;whiteSpace=wrap;rounded=0;fontColor=#009900;" parent="1" vertex="1">
                    <mxGeometry x="414" y="60" width="60" height="30" as="geometry"/>
                </mxCell>
                <mxCell id="rTcP7m26tGcJ0GSYRuCK-50" value="" style="edgeStyle=orthogonalEdgeStyle;rounded=0;orthogonalLoop=1;jettySize=auto;html=1;" parent="1" source="rTcP7m26tGcJ0GSYRuCK-44" target="rTcP7m26tGcJ0GSYRuCK-45" edge="1">
                    <mxGeometry relative="1" as="geometry"/>
                </mxCell>
                <mxCell id="rTcP7m26tGcJ0GSYRuCK-44" value="Chama toast de sucesso" style="text;html=1;strokeColor=none;fillColor=none;align=center;verticalAlign=middle;whiteSpace=wrap;rounded=0;fontColor=#009900;" parent="1" vertex="1">
                    <mxGeometry x="260" y="60" width="60" height="30" as="geometry"/>
                </mxCell>
                <mxCell id="rTcP7m26tGcJ0GSYRuCK-45" value="Feedback de sucesso" style="text;html=1;strokeColor=none;fillColor=none;align=center;verticalAlign=middle;whiteSpace=wrap;rounded=0;fontColor=#009900;" parent="1" vertex="1">
                    <mxGeometry x="90" y="60" width="60" height="30" as="geometry"/>
                </mxCell>
            </root>
        </mxGraphModel>
    </diagram>
    <diagram id="mdeOdjIJ4YU2dwzWxpi7" name="fluxo">
        <mxGraphModel dx="1066" dy="761" grid="1" gridSize="10" guides="1" tooltips="1" connect="1" arrows="1" fold="1" page="1" pageScale="1" pageWidth="827" pageHeight="1169" math="0" shadow="0">
            <root>
                <mxCell id="0"/>
                <mxCell id="1" parent="0"/>
                <mxCell id="5iE4DLWw68fihlB2kYFc-4" value="" style="group" parent="1" vertex="1" connectable="0">
                    <mxGeometry x="40" y="50" width="60" height="30" as="geometry"/>
                </mxCell>
                <mxCell id="5iE4DLWw68fihlB2kYFc-2" value="" style="triangle;whiteSpace=wrap;html=1;fontColor=#000000;" parent="5iE4DLWw68fihlB2kYFc-4" vertex="1">
                    <mxGeometry y="5" width="12" height="20" as="geometry"/>
                </mxCell>
                <mxCell id="5iE4DLWw68fihlB2kYFc-3" value="Src" style="text;html=1;strokeColor=none;fillColor=none;align=center;verticalAlign=middle;whiteSpace=wrap;rounded=0;fontColor=#FFFFFF;" parent="5iE4DLWw68fihlB2kYFc-4" vertex="1">
                    <mxGeometry width="60" height="30" as="geometry"/>
                </mxCell>
                <mxCell id="5iE4DLWw68fihlB2kYFc-5" value="" style="group" parent="1" vertex="1" connectable="0">
                    <mxGeometry x="60" y="80" width="70" height="30" as="geometry"/>
                </mxCell>
                <mxCell id="5iE4DLWw68fihlB2kYFc-6" value="" style="triangle;whiteSpace=wrap;html=1;fontColor=#000000;" parent="5iE4DLWw68fihlB2kYFc-5" vertex="1">
                    <mxGeometry y="5" width="12" height="20" as="geometry"/>
                </mxCell>
                <mxCell id="5iE4DLWw68fihlB2kYFc-7" value="Routes" style="text;html=1;strokeColor=none;fillColor=none;align=center;verticalAlign=middle;whiteSpace=wrap;rounded=0;fontColor=#FFFFFF;" parent="5iE4DLWw68fihlB2kYFc-5" vertex="1">
                    <mxGeometry width="70" height="30" as="geometry"/>
                </mxCell>
                <mxCell id="5iE4DLWw68fihlB2kYFc-8" value="" style="group" parent="1" vertex="1" connectable="0">
                    <mxGeometry x="60" y="110" width="70" height="30" as="geometry"/>
                </mxCell>
                <mxCell id="5iE4DLWw68fihlB2kYFc-9" value="" style="triangle;whiteSpace=wrap;html=1;fontColor=#000000;" parent="5iE4DLWw68fihlB2kYFc-8" vertex="1">
                    <mxGeometry y="5" width="12" height="20" as="geometry"/>
                </mxCell>
                <mxCell id="5iE4DLWw68fihlB2kYFc-10" value="hooks" style="text;html=1;strokeColor=none;fillColor=none;align=center;verticalAlign=middle;whiteSpace=wrap;rounded=0;fontColor=#FFFFFF;" parent="5iE4DLWw68fihlB2kYFc-8" vertex="1">
                    <mxGeometry width="70" height="30" as="geometry"/>
                </mxCell>
                <mxCell id="5iE4DLWw68fihlB2kYFc-11" value="" style="group" parent="1" vertex="1" connectable="0">
                    <mxGeometry x="60" y="140" width="100" height="30" as="geometry"/>
                </mxCell>
                <mxCell id="5iE4DLWw68fihlB2kYFc-12" value="" style="triangle;whiteSpace=wrap;html=1;fontColor=#000000;" parent="5iE4DLWw68fihlB2kYFc-11" vertex="1">
                    <mxGeometry y="5" width="12" height="20" as="geometry"/>
                </mxCell>
                <mxCell id="5iE4DLWw68fihlB2kYFc-13" value="components" style="text;html=1;strokeColor=none;fillColor=none;align=center;verticalAlign=middle;whiteSpace=wrap;rounded=0;fontColor=#FFFFFF;" parent="5iE4DLWw68fihlB2kYFc-11" vertex="1">
                    <mxGeometry width="100" height="30" as="geometry"/>
                </mxCell>
                <mxCell id="5iE4DLWw68fihlB2kYFc-14" value="" style="group" parent="1" vertex="1" connectable="0">
                    <mxGeometry x="60" y="170" width="100" height="30" as="geometry"/>
                </mxCell>
                <mxCell id="5iE4DLWw68fihlB2kYFc-15" value="" style="triangle;whiteSpace=wrap;html=1;fontColor=#000000;" parent="5iE4DLWw68fihlB2kYFc-14" vertex="1">
                    <mxGeometry y="5" width="12" height="20" as="geometry"/>
                </mxCell>
                <mxCell id="5iE4DLWw68fihlB2kYFc-16" value="modules" style="text;html=1;strokeColor=none;fillColor=none;align=center;verticalAlign=middle;whiteSpace=wrap;rounded=0;fontColor=#FFFFFF;" parent="5iE4DLWw68fihlB2kYFc-14" vertex="1">
                    <mxGeometry width="80" height="30" as="geometry"/>
                </mxCell>
                <mxCell id="5iE4DLWw68fihlB2kYFc-17" value="" style="group" parent="1" vertex="1" connectable="0">
                    <mxGeometry x="80" y="200" width="100" height="30" as="geometry"/>
                </mxCell>
                <mxCell id="5iE4DLWw68fihlB2kYFc-18" value="" style="triangle;whiteSpace=wrap;html=1;fontColor=#000000;" parent="5iE4DLWw68fihlB2kYFc-17" vertex="1">
                    <mxGeometry y="5" width="12" height="20" as="geometry"/>
                </mxCell>
                <mxCell id="5iE4DLWw68fihlB2kYFc-19" value="Login" style="text;html=1;strokeColor=none;fillColor=none;align=center;verticalAlign=middle;whiteSpace=wrap;rounded=0;fontColor=#FFFFFF;" parent="5iE4DLWw68fihlB2kYFc-17" vertex="1">
                    <mxGeometry width="80" height="30" as="geometry"/>
                </mxCell>
                <mxCell id="5iE4DLWw68fihlB2kYFc-20" value="" style="group" parent="1" vertex="1" connectable="0">
                    <mxGeometry x="100" y="240" width="100" height="30" as="geometry"/>
                </mxCell>
                <mxCell id="5iE4DLWw68fihlB2kYFc-21" value="" style="triangle;whiteSpace=wrap;html=1;fontColor=#000000;" parent="5iE4DLWw68fihlB2kYFc-20" vertex="1">
                    <mxGeometry y="5" width="12" height="20" as="geometry"/>
                </mxCell>
                <mxCell id="5iE4DLWw68fihlB2kYFc-22" value="Routes" style="text;html=1;strokeColor=none;fillColor=none;align=center;verticalAlign=middle;whiteSpace=wrap;rounded=0;fontColor=#FFFFFF;" parent="5iE4DLWw68fihlB2kYFc-20" vertex="1">
                    <mxGeometry width="100" height="30" as="geometry"/>
                </mxCell>
                <mxCell id="5iE4DLWw68fihlB2kYFc-24" value="" style="group" parent="1" vertex="1" connectable="0">
                    <mxGeometry x="100" y="280" width="100" height="30" as="geometry"/>
                </mxCell>
                <mxCell id="5iE4DLWw68fihlB2kYFc-25" value="" style="triangle;whiteSpace=wrap;html=1;fontColor=#000000;" parent="5iE4DLWw68fihlB2kYFc-24" vertex="1">
                    <mxGeometry y="5" width="12" height="20" as="geometry"/>
                </mxCell>
                <mxCell id="5iE4DLWw68fihlB2kYFc-26" value="models" style="text;html=1;strokeColor=none;fillColor=none;align=center;verticalAlign=middle;whiteSpace=wrap;rounded=0;fontColor=#FFFFFF;" parent="5iE4DLWw68fihlB2kYFc-24" vertex="1">
                    <mxGeometry width="100" height="30" as="geometry"/>
                </mxCell>
                <mxCell id="5iE4DLWw68fihlB2kYFc-27" value="" style="group" parent="1" vertex="1" connectable="0">
                    <mxGeometry x="120" y="320" width="100" height="30" as="geometry"/>
                </mxCell>
                <mxCell id="5iE4DLWw68fihlB2kYFc-28" value="" style="triangle;whiteSpace=wrap;html=1;fontColor=#000000;" parent="5iE4DLWw68fihlB2kYFc-27" vertex="1">
                    <mxGeometry y="5" width="12" height="20" as="geometry"/>
                </mxCell>
                <mxCell id="5iE4DLWw68fihlB2kYFc-29" value="useCases" style="text;html=1;strokeColor=none;fillColor=none;align=center;verticalAlign=middle;whiteSpace=wrap;rounded=0;fontColor=#FFFFFF;" parent="5iE4DLWw68fihlB2kYFc-27" vertex="1">
                    <mxGeometry width="100" height="30" as="geometry"/>
                </mxCell>
                <mxCell id="5iE4DLWw68fihlB2kYFc-30" value="" style="group" parent="1" vertex="1" connectable="0">
                    <mxGeometry x="140" y="360" width="100" height="30" as="geometry"/>
                </mxCell>
                <mxCell id="5iE4DLWw68fihlB2kYFc-31" value="" style="triangle;whiteSpace=wrap;html=1;fontColor=#000000;" parent="5iE4DLWw68fihlB2kYFc-30" vertex="1">
                    <mxGeometry y="5" width="12" height="20" as="geometry"/>
                </mxCell>
                <mxCell id="5iE4DLWw68fihlB2kYFc-32" value="useLogin.model" style="text;html=1;strokeColor=none;fillColor=none;align=center;verticalAlign=middle;whiteSpace=wrap;rounded=0;fontColor=#FFFFFF;" parent="5iE4DLWw68fihlB2kYFc-30" vertex="1">
                    <mxGeometry x="10" width="100" height="30" as="geometry"/>
                </mxCell>
                <mxCell id="5iE4DLWw68fihlB2kYFc-33" value="" style="group" parent="1" vertex="1" connectable="0">
                    <mxGeometry x="140" y="400" width="100" height="30" as="geometry"/>
                </mxCell>
                <mxCell id="5iE4DLWw68fihlB2kYFc-34" value="" style="triangle;whiteSpace=wrap;html=1;fontColor=#000000;" parent="5iE4DLWw68fihlB2kYFc-33" vertex="1">
                    <mxGeometry y="5" width="12" height="20" as="geometry"/>
                </mxCell>
                <mxCell id="5iE4DLWw68fihlB2kYFc-35" value="useSingUp" style="text;html=1;strokeColor=none;fillColor=none;align=center;verticalAlign=middle;whiteSpace=wrap;rounded=0;fontColor=#FFFFFF;" parent="5iE4DLWw68fihlB2kYFc-33" vertex="1">
                    <mxGeometry width="100" height="30" as="geometry"/>
                </mxCell>
                <mxCell id="5iE4DLWw68fihlB2kYFc-36" value="" style="group" parent="1" vertex="1" connectable="0">
                    <mxGeometry x="120" y="440" width="100" height="30" as="geometry"/>
                </mxCell>
                <mxCell id="5iE4DLWw68fihlB2kYFc-37" value="" style="triangle;whiteSpace=wrap;html=1;fontColor=#000000;" parent="5iE4DLWw68fihlB2kYFc-36" vertex="1">
                    <mxGeometry y="5" width="12" height="20" as="geometry"/>
                </mxCell>
                <mxCell id="5iE4DLWw68fihlB2kYFc-38" value="loginService" style="text;html=1;strokeColor=none;fillColor=none;align=center;verticalAlign=middle;whiteSpace=wrap;rounded=0;fontColor=#FFFFFF;" parent="5iE4DLWw68fihlB2kYFc-36" vertex="1">
                    <mxGeometry width="100" height="30" as="geometry"/>
                </mxCell>
                <mxCell id="5iE4DLWw68fihlB2kYFc-39" value="" style="group" parent="1" vertex="1" connectable="0">
                    <mxGeometry x="120" y="470" width="100" height="30" as="geometry"/>
                </mxCell>
                <mxCell id="5iE4DLWw68fihlB2kYFc-40" value="" style="triangle;whiteSpace=wrap;html=1;fontColor=#000000;" parent="5iE4DLWw68fihlB2kYFc-39" vertex="1">
                    <mxGeometry y="5" width="12" height="20" as="geometry"/>
                </mxCell>
                <mxCell id="5iE4DLWw68fihlB2kYFc-41" value="loginAdapter" style="text;html=1;strokeColor=none;fillColor=none;align=center;verticalAlign=middle;whiteSpace=wrap;rounded=0;fontColor=#FFFFFF;" parent="5iE4DLWw68fihlB2kYFc-39" vertex="1">
                    <mxGeometry width="100" height="30" as="geometry"/>
                </mxCell>
                <mxCell id="5iE4DLWw68fihlB2kYFc-42" value="" style="group" parent="1" vertex="1" connectable="0">
                    <mxGeometry x="100" y="570" width="100" height="30" as="geometry"/>
                </mxCell>
                <mxCell id="5iE4DLWw68fihlB2kYFc-43" value="" style="triangle;whiteSpace=wrap;html=1;fontColor=#000000;" parent="5iE4DLWw68fihlB2kYFc-42" vertex="1">
                    <mxGeometry y="5" width="12" height="20" as="geometry"/>
                </mxCell>
                <mxCell id="5iE4DLWw68fihlB2kYFc-44" value="screens" style="text;html=1;strokeColor=none;fillColor=none;align=center;verticalAlign=middle;whiteSpace=wrap;rounded=0;fontColor=#FFFFFF;" parent="5iE4DLWw68fihlB2kYFc-42" vertex="1">
                    <mxGeometry width="80" height="30" as="geometry"/>
                </mxCell>
                <mxCell id="5iE4DLWw68fihlB2kYFc-45" value="" style="group" parent="1" vertex="1" connectable="0">
                    <mxGeometry x="120" y="600" width="100" height="30" as="geometry"/>
                </mxCell>
                <mxCell id="5iE4DLWw68fihlB2kYFc-46" value="" style="triangle;whiteSpace=wrap;html=1;fontColor=#000000;" parent="5iE4DLWw68fihlB2kYFc-45" vertex="1">
                    <mxGeometry y="5" width="12" height="20" as="geometry"/>
                </mxCell>
                <mxCell id="5iE4DLWw68fihlB2kYFc-47" value="LoginScreen" style="text;html=1;strokeColor=none;fillColor=none;align=center;verticalAlign=middle;whiteSpace=wrap;rounded=0;fontColor=#FFFFFF;" parent="5iE4DLWw68fihlB2kYFc-45" vertex="1">
                    <mxGeometry width="100" height="30" as="geometry"/>
                </mxCell>
                <mxCell id="5iE4DLWw68fihlB2kYFc-49" value="" style="group" parent="1" vertex="1" connectable="0">
                    <mxGeometry x="140" y="630" width="100" height="30" as="geometry"/>
                </mxCell>
                <mxCell id="5iE4DLWw68fihlB2kYFc-50" value="" style="triangle;whiteSpace=wrap;html=1;fontColor=#000000;" parent="5iE4DLWw68fihlB2kYFc-49" vertex="1">
                    <mxGeometry y="5" width="12" height="20" as="geometry"/>
                </mxCell>
                <mxCell id="5iE4DLWw68fihlB2kYFc-51" value="LoginScreen" style="text;html=1;strokeColor=none;fillColor=none;align=center;verticalAlign=middle;whiteSpace=wrap;rounded=0;fontColor=#FFFFFF;" parent="5iE4DLWw68fihlB2kYFc-49" vertex="1">
                    <mxGeometry width="100" height="30" as="geometry"/>
                </mxCell>
                <mxCell id="5iE4DLWw68fihlB2kYFc-58" value="" style="group" parent="1" vertex="1" connectable="0">
                    <mxGeometry x="140" y="690" width="100" height="30" as="geometry"/>
                </mxCell>
                <mxCell id="5iE4DLWw68fihlB2kYFc-59" value="" style="triangle;whiteSpace=wrap;html=1;fontColor=#000000;" parent="5iE4DLWw68fihlB2kYFc-58" vertex="1">
                    <mxGeometry y="5" width="12" height="20" as="geometry"/>
                </mxCell>
                <mxCell id="5iE4DLWw68fihlB2kYFc-60" value="__tests__" style="text;html=1;strokeColor=none;fillColor=none;align=center;verticalAlign=middle;whiteSpace=wrap;rounded=0;fontColor=#FFFFFF;" parent="5iE4DLWw68fihlB2kYFc-58" vertex="1">
                    <mxGeometry width="100" height="30" as="geometry"/>
                </mxCell>
                <mxCell id="5iE4DLWw68fihlB2kYFc-62" value="" style="group" parent="1" vertex="1" connectable="0">
                    <mxGeometry x="140" y="720" width="100" height="30" as="geometry"/>
                </mxCell>
                <mxCell id="5iE4DLWw68fihlB2kYFc-63" value="" style="triangle;whiteSpace=wrap;html=1;fontColor=#000000;" parent="5iE4DLWw68fihlB2kYFc-62" vertex="1">
                    <mxGeometry y="5" width="12" height="20" as="geometry"/>
                </mxCell>
                <mxCell id="5iE4DLWw68fihlB2kYFc-64" value="components" style="text;html=1;strokeColor=none;fillColor=none;align=center;verticalAlign=middle;whiteSpace=wrap;rounded=0;fontColor=#FFFFFF;" parent="5iE4DLWw68fihlB2kYFc-62" vertex="1">
                    <mxGeometry x="10" width="80" height="30" as="geometry"/>
                </mxCell>
                <mxCell id="5iE4DLWw68fihlB2kYFc-65" value="" style="group" parent="1" vertex="1" connectable="0">
                    <mxGeometry x="110" y="760" width="100" height="30" as="geometry"/>
                </mxCell>
                <mxCell id="5iE4DLWw68fihlB2kYFc-66" value="" style="triangle;whiteSpace=wrap;html=1;fontColor=#000000;" parent="5iE4DLWw68fihlB2kYFc-65" vertex="1">
                    <mxGeometry y="5" width="12" height="20" as="geometry"/>
                </mxCell>
                <mxCell id="5iE4DLWw68fihlB2kYFc-67" value="routes" style="text;html=1;strokeColor=none;fillColor=none;align=center;verticalAlign=middle;whiteSpace=wrap;rounded=0;fontColor=#FFFFFF;" parent="5iE4DLWw68fihlB2kYFc-65" vertex="1">
                    <mxGeometry width="80" height="30" as="geometry"/>
                </mxCell>
                <mxCell id="5iE4DLWw68fihlB2kYFc-54" value="login.modelController" style="text;html=1;strokeColor=none;fillColor=none;align=center;verticalAlign=middle;whiteSpace=wrap;rounded=0;fontColor=#FFFFFF;" parent="1" vertex="1">
                    <mxGeometry x="140" y="660" width="150" height="30" as="geometry"/>
                </mxCell>
                <mxCell id="5iE4DLWw68fihlB2kYFc-53" value="" style="triangle;whiteSpace=wrap;html=1;fontColor=#000000;" parent="1" vertex="1">
                    <mxGeometry x="140" y="665" width="12" height="20" as="geometry"/>
                </mxCell>
                <mxCell id="5iE4DLWw68fihlB2kYFc-71" value="" style="group" parent="1" vertex="1" connectable="0">
                    <mxGeometry x="100" y="500" width="100" height="30" as="geometry"/>
                </mxCell>
                <mxCell id="5iE4DLWw68fihlB2kYFc-72" value="" style="triangle;whiteSpace=wrap;html=1;fontColor=#000000;" parent="5iE4DLWw68fihlB2kYFc-71" vertex="1">
                    <mxGeometry y="5" width="12" height="20" as="geometry"/>
                </mxCell>
                <mxCell id="5iE4DLWw68fihlB2kYFc-73" value="modelView" style="text;html=1;strokeColor=none;fillColor=none;align=center;verticalAlign=middle;whiteSpace=wrap;rounded=0;fontColor=#FFFFFF;" parent="5iE4DLWw68fihlB2kYFc-71" vertex="1">
                    <mxGeometry x="10" width="80" height="30" as="geometry"/>
                </mxCell>
                <mxCell id="5iE4DLWw68fihlB2kYFc-74" value="" style="group" parent="1" vertex="1" connectable="0">
                    <mxGeometry x="120" y="530" width="140" height="30" as="geometry"/>
                </mxCell>
                <mxCell id="5iE4DLWw68fihlB2kYFc-75" value="" style="triangle;whiteSpace=wrap;html=1;fontColor=#000000;" parent="5iE4DLWw68fihlB2kYFc-74" vertex="1">
                    <mxGeometry y="5" width="12" height="20" as="geometry"/>
                </mxCell>
                <mxCell id="5iE4DLWw68fihlB2kYFc-76" value="useLogin.modelView" style="text;html=1;strokeColor=none;fillColor=none;align=center;verticalAlign=middle;whiteSpace=wrap;rounded=0;fontColor=#FFFFFF;" parent="5iE4DLWw68fihlB2kYFc-74" vertex="1">
                    <mxGeometry x="10" width="130" height="30" as="geometry"/>
                </mxCell>
                <mxCell id="5iE4DLWw68fihlB2kYFc-81" value="" style="curved=1;endArrow=classic;html=1;fontColor=#FFFFFF;" parent="1" edge="1">
                    <mxGeometry width="50" height="50" relative="1" as="geometry">
                        <mxPoint x="260" y="535" as="sourcePoint"/>
                        <mxPoint x="270" y="375" as="targetPoint"/>
                        <Array as="points">
                            <mxPoint x="310" y="535"/>
                            <mxPoint x="360" y="505"/>
                            <mxPoint x="390" y="475"/>
                            <mxPoint x="390" y="435"/>
                            <mxPoint x="350" y="385"/>
                            <mxPoint x="320" y="375"/>
                        </Array>
                    </mxGeometry>
                </mxCell>
                <mxCell id="5iE4DLWw68fihlB2kYFc-83" value="" style="curved=1;endArrow=classic;html=1;fontColor=#FFFFFF;" parent="1" edge="1">
                    <mxGeometry width="50" height="50" relative="1" as="geometry">
                        <mxPoint x="300" y="680" as="sourcePoint"/>
                        <mxPoint x="290" y="550" as="targetPoint"/>
                        <Array as="points">
                            <mxPoint x="350" y="680"/>
                            <mxPoint x="390" y="640"/>
                            <mxPoint x="360" y="550"/>
                        </Array>
                    </mxGeometry>
                </mxCell>
                <mxCell id="5iE4DLWw68fihlB2kYFc-84" value="" style="curved=1;endArrow=classic;html=1;fontColor=#FFFFFF;" parent="1" edge="1">
                    <mxGeometry width="50" height="50" relative="1" as="geometry">
                        <mxPoint x="260" y="370" as="sourcePoint"/>
                        <mxPoint x="224" y="450" as="targetPoint"/>
                        <Array as="points">
                            <mxPoint x="304" y="365"/>
                            <mxPoint x="364" y="350"/>
                            <mxPoint x="374" y="350"/>
                            <mxPoint x="404" y="350"/>
                            <mxPoint x="414" y="360"/>
                            <mxPoint x="414" y="390"/>
                            <mxPoint x="374" y="430"/>
                            <mxPoint x="304" y="460"/>
                        </Array>
                    </mxGeometry>
                </mxCell>
                <mxCell id="5iE4DLWw68fihlB2kYFc-85" value="1" style="text;html=1;strokeColor=none;fillColor=none;align=center;verticalAlign=middle;whiteSpace=wrap;rounded=0;fontColor=#FFFFFF;" parent="1" vertex="1">
                    <mxGeometry x="430" y="620" width="60" height="30" as="geometry"/>
                </mxCell>
                <mxCell id="5iE4DLWw68fihlB2kYFc-87" value="2" style="text;html=1;strokeColor=none;fillColor=none;align=center;verticalAlign=middle;whiteSpace=wrap;rounded=0;fontColor=#FFFFFF;" parent="1" vertex="1">
                    <mxGeometry x="400" y="450" width="60" height="30" as="geometry"/>
                </mxCell>
                <mxCell id="5iE4DLWw68fihlB2kYFc-88" value="3" style="text;html=1;strokeColor=none;fillColor=none;align=center;verticalAlign=middle;whiteSpace=wrap;rounded=0;fontColor=#FFFFFF;" parent="1" vertex="1">
                    <mxGeometry x="414" y="360" width="60" height="30" as="geometry"/>
                </mxCell>
                <mxCell id="5iE4DLWw68fihlB2kYFc-89" value="1" style="text;html=1;strokeColor=none;fillColor=none;align=center;verticalAlign=middle;whiteSpace=wrap;rounded=0;fontColor=#FFFFFF;" parent="1" vertex="1">
                    <mxGeometry x="50" y="880" width="60" height="30" as="geometry"/>
                </mxCell>
                <mxCell id="5iE4DLWw68fihlB2kYFc-90" value="user clica no submit e chama o loginModelView" style="text;html=1;strokeColor=none;fillColor=none;align=center;verticalAlign=middle;whiteSpace=wrap;rounded=0;fontColor=#FFFFFF;" parent="1" vertex="1">
                    <mxGeometry x="100" y="880" width="160" height="30" as="geometry"/>
                </mxCell>
                <mxCell id="5iE4DLWw68fihlB2kYFc-91" value="2" style="text;html=1;strokeColor=none;fillColor=none;align=center;verticalAlign=middle;whiteSpace=wrap;rounded=0;fontColor=#FFFFFF;" parent="1" vertex="1">
                    <mxGeometry x="50" y="940" width="60" height="30" as="geometry"/>
                </mxCell>
                <mxCell id="5iE4DLWw68fihlB2kYFc-92" value="loginModelView recebe os dados (email e senha), verifica eles e se estiver tudo certo chama o loginModel" style="text;html=1;strokeColor=none;fillColor=none;align=center;verticalAlign=middle;whiteSpace=wrap;rounded=0;fontColor=#FFFFFF;" parent="1" vertex="1">
                    <mxGeometry x="100" y="940" width="160" height="30" as="geometry"/>
                </mxCell>
                <mxCell id="5iE4DLWw68fihlB2kYFc-93" value="3" style="text;html=1;strokeColor=none;fillColor=none;align=center;verticalAlign=middle;whiteSpace=wrap;rounded=0;fontColor=#FFFFFF;" parent="1" vertex="1">
                    <mxGeometry x="50" y="1000" width="60" height="30" as="geometry"/>
                </mxCell>
                <mxCell id="5iE4DLWw68fihlB2kYFc-94" value="loginModel chama a api com os dados&amp;nbsp;" style="text;html=1;strokeColor=none;fillColor=none;align=center;verticalAlign=middle;whiteSpace=wrap;rounded=0;fontColor=#FFFFFF;" parent="1" vertex="1">
                    <mxGeometry x="100" y="1000" width="160" height="30" as="geometry"/>
                </mxCell>
                <mxCell id="5iE4DLWw68fihlB2kYFc-95" value="erro" style="text;html=1;strokeColor=none;fillColor=none;align=center;verticalAlign=middle;whiteSpace=wrap;rounded=0;fontColor=#FFFFFF;" parent="1" vertex="1">
                    <mxGeometry x="300" y="870" width="60" height="30" as="geometry"/>
                </mxCell>
                <mxCell id="5iE4DLWw68fihlB2kYFc-100" value="" style="group" parent="1" vertex="1" connectable="0">
                    <mxGeometry x="520" y="870" width="160" height="30" as="geometry"/>
                </mxCell>
                <mxCell id="5iE4DLWw68fihlB2kYFc-98" value="2" style="text;html=1;strokeColor=none;fillColor=none;align=center;verticalAlign=middle;whiteSpace=wrap;rounded=0;fontColor=#FFFFFF;" parent="5iE4DLWw68fihlB2kYFc-100" vertex="1">
                    <mxGeometry width="60" height="30" as="geometry"/>
                </mxCell>
                <mxCell id="5iE4DLWw68fihlB2kYFc-99" value="loginModelView trata o erro e retorna pra view" style="text;html=1;strokeColor=none;fillColor=none;align=center;verticalAlign=middle;whiteSpace=wrap;rounded=0;fontColor=#FFFFFF;" parent="5iE4DLWw68fihlB2kYFc-100" vertex="1">
                    <mxGeometry x="40" width="120" height="30" as="geometry"/>
                </mxCell>
                <mxCell id="5iE4DLWw68fihlB2kYFc-101" value="" style="group" parent="1" vertex="1" connectable="0">
                    <mxGeometry x="670" y="870" width="130" height="30" as="geometry"/>
                </mxCell>
                <mxCell id="5iE4DLWw68fihlB2kYFc-102" value="3" style="text;html=1;strokeColor=none;fillColor=none;align=center;verticalAlign=middle;whiteSpace=wrap;rounded=0;fontColor=#FFFFFF;" parent="5iE4DLWw68fihlB2kYFc-101" vertex="1">
                    <mxGeometry width="48.75" height="30" as="geometry"/>
                </mxCell>
                <mxCell id="5iE4DLWw68fihlB2kYFc-103" value="A view exibe o erro" style="text;html=1;strokeColor=none;fillColor=none;align=center;verticalAlign=middle;whiteSpace=wrap;rounded=0;fontColor=#FFFFFF;" parent="5iE4DLWw68fihlB2kYFc-101" vertex="1">
                    <mxGeometry x="32.5" width="97.5" height="30" as="geometry"/>
                </mxCell>
                <mxCell id="5iE4DLWw68fihlB2kYFc-104" value="" style="group" parent="1" vertex="1" connectable="0">
                    <mxGeometry x="350" y="870" width="160" height="30" as="geometry"/>
                </mxCell>
                <mxCell id="5iE4DLWw68fihlB2kYFc-96" value="&amp;nbsp;loginModel retorna o erro para o loginModelView" style="text;html=1;strokeColor=none;fillColor=none;align=center;verticalAlign=middle;whiteSpace=wrap;rounded=0;fontColor=#FFFFFF;" parent="5iE4DLWw68fihlB2kYFc-104" vertex="1">
                    <mxGeometry x="40" width="120" height="30" as="geometry"/>
                </mxCell>
                <mxCell id="5iE4DLWw68fihlB2kYFc-97" value="1" style="text;html=1;strokeColor=none;fillColor=none;align=center;verticalAlign=middle;whiteSpace=wrap;rounded=0;fontColor=#FFFFFF;" parent="5iE4DLWw68fihlB2kYFc-104" vertex="1">
                    <mxGeometry width="60" height="30" as="geometry"/>
                </mxCell>
                <mxCell id="5iE4DLWw68fihlB2kYFc-109" value="sucesso" style="text;html=1;strokeColor=none;fillColor=none;align=center;verticalAlign=middle;whiteSpace=wrap;rounded=0;fontColor=#FFFFFF;" parent="1" vertex="1">
                    <mxGeometry x="300" y="980" width="60" height="30" as="geometry"/>
                </mxCell>
                <mxCell id="5iE4DLWw68fihlB2kYFc-110" value="" style="group" parent="1" vertex="1" connectable="0">
                    <mxGeometry x="520" y="980" width="160" height="30" as="geometry"/>
                </mxCell>
                <mxCell id="5iE4DLWw68fihlB2kYFc-111" value="2" style="text;html=1;strokeColor=none;fillColor=none;align=center;verticalAlign=middle;whiteSpace=wrap;rounded=0;fontColor=#FFFFFF;" parent="5iE4DLWw68fihlB2kYFc-110" vertex="1">
                    <mxGeometry width="60" height="30" as="geometry"/>
                </mxCell>
                <mxCell id="5iE4DLWw68fihlB2kYFc-112" value="loginModelView salva no estado e no storage" style="text;html=1;strokeColor=none;fillColor=none;align=center;verticalAlign=middle;whiteSpace=wrap;rounded=0;fontColor=#FFFFFF;" parent="5iE4DLWw68fihlB2kYFc-110" vertex="1">
                    <mxGeometry x="40" width="120" height="30" as="geometry"/>
                </mxCell>
                <mxCell id="5iE4DLWw68fihlB2kYFc-113" value="" style="group" parent="1" vertex="1" connectable="0">
                    <mxGeometry x="670" y="980" width="130" height="30" as="geometry"/>
                </mxCell>
                <mxCell id="5iE4DLWw68fihlB2kYFc-114" value="3" style="text;html=1;strokeColor=none;fillColor=none;align=center;verticalAlign=middle;whiteSpace=wrap;rounded=0;fontColor=#FFFFFF;" parent="5iE4DLWw68fihlB2kYFc-113" vertex="1">
                    <mxGeometry width="48.75" height="30" as="geometry"/>
                </mxCell>
                <mxCell id="5iE4DLWw68fihlB2kYFc-115" value="A view exibe o sucesso" style="text;html=1;strokeColor=none;fillColor=none;align=center;verticalAlign=middle;whiteSpace=wrap;rounded=0;fontColor=#FFFFFF;" parent="5iE4DLWw68fihlB2kYFc-113" vertex="1">
                    <mxGeometry x="32.5" width="97.5" height="30" as="geometry"/>
                </mxCell>
                <mxCell id="5iE4DLWw68fihlB2kYFc-116" value="" style="group" parent="1" vertex="1" connectable="0">
                    <mxGeometry x="350" y="980" width="160" height="30" as="geometry"/>
                </mxCell>
                <mxCell id="5iE4DLWw68fihlB2kYFc-117" value="&amp;nbsp;loginModel retorna o os dados do login para o loginModelView" style="text;html=1;strokeColor=none;fillColor=none;align=center;verticalAlign=middle;whiteSpace=wrap;rounded=0;fontColor=#FFFFFF;" parent="5iE4DLWw68fihlB2kYFc-116" vertex="1">
                    <mxGeometry x="40" width="120" height="30" as="geometry"/>
                </mxCell>
                <mxCell id="5iE4DLWw68fihlB2kYFc-118" value="1" style="text;html=1;strokeColor=none;fillColor=none;align=center;verticalAlign=middle;whiteSpace=wrap;rounded=0;fontColor=#FFFFFF;" parent="5iE4DLWw68fihlB2kYFc-116" vertex="1">
                    <mxGeometry width="60" height="30" as="geometry"/>
                </mxCell>
            </root>
        </mxGraphModel>
    </diagram>
</mxfile>